# xmcd
# 
# Track frame offsets:
#     150
#     16892
#     31948
#     47806
#     66462
#     83326
#     101349
#     118359
#     137686
#     153458
#     169088
# 
# Disc length: 2482
# 
# Revision: 1
# Processed by: cddbd v1.5.2PL0 Copyright (c) Steve Scherf et al.
# Submitted via: fre:ac v1.1beta1pre4
# 
DISCID=8909b00b
DTITLE=Zane Williams - Ride With Me
DYEAR=2011
DGENRE=Texas Country
TTITLE0=87 Chevy
TTITLE1=Ride With Me
TTITLE2=What You Do With What You Got
TTITLE3=Born Into Love
TTITLE4=Fall In Love Tonight
TTITLE5=The Big Picture
TTITLE6=High Hopes And Low Expectations
TTITLE7=Rain From A Clear Blue Sky
TTITLE8=Hope Is A Flame
TTITLE9=Livin' In The City
TTITLE10=The Long Way Around
EXTD=YEAR: 2011
EXTT0=
EXTT1=
EXTT2=
EXTT3=
EXTT4=
EXTT5=
EXTT6=
EXTT7=
EXTT8=
EXTT9=
EXTT10=
PLAYORDER=
